<svg width="192" height="192" viewBox="0 0 192 192" fill="none" xmlns="http://www.w3.org/2000/svg">
<g clip-path="url(#clip0_2057_2064)">
<rect width="192" height="192" fill="white"/>
<g clip-path="url(#clip1_2057_2064)">
<path d="M93.5121 98.5611C93.396 100.385 93.3742 102.069 96.0656 101.227C97.2626 100.853 97.8937 101.527 98.5466 102.597C100.034 105.021 105.881 107.167 108.289 106.361C110.132 105.746 109.435 103.388 110.857 102.472C109.856 101.432 108.826 101.681 107.629 102.208C105.054 103.351 103.32 102.699 102.37 99.7768C101.985 98.5977 99.6783 98.9126 99.301 96.8399C100.614 97.3673 101.644 97.9532 102.754 98.1876C103.951 98.4366 105.445 98.1949 105.591 96.8326C105.685 95.9757 104.691 95.0529 106.403 94.9064C107.919 94.7746 109.501 95.3752 109.472 96.7521C109.37 101.593 114.006 102.736 116.001 105.892L115.95 105.856C114.746 109.613 116.973 113.993 113.882 117.435C113.715 117.618 114.02 118.358 114.238 118.76C117.002 123.872 115.739 129.087 114.666 134.294C114.571 134.763 114.151 135.305 114.281 135.671C115.522 139.106 113.476 138.594 110.959 137.685C112.431 141.97 112.62 145.742 110.407 149.272C109.515 150.685 111.031 151.652 111.162 152.824C103.255 153.901 97.872 150.546 94.7816 143.537C93.3525 143.991 93.5701 145.046 93.2727 145.756C91.3648 150.319 90.828 150.195 87.2951 147.082C82.5871 142.937 79.1775 138.44 79.6491 131.782C79.7144 130.867 79.0832 129.71 78.2417 130.698C76.0727 133.24 72.5978 134.031 70.6609 136.828C69.2608 136.484 69.5147 134.382 67.3965 134.163C66.5767 143.112 60.5411 147.792 52.9313 151.015C51.5167 151.615 51.2338 151.491 48.2885 150.114C52.4598 150.253 55.5356 148.554 56.5948 145.551C57.6757 142.497 57.9296 138.952 57.9296 135.459L58.8581 140.417C59.6488 137.788 59.7504 135.012 62.362 133.892C62.362 133.987 62.333 134.499 62.362 135.005C62.478 136.843 61.0127 138.85 62.8988 140.483C63.334 140.857 63.8781 140.644 64.103 140.168C65.2709 137.751 67.7084 135.832 67.3094 132.808C67.1571 131.665 66.3518 130.603 65.8295 129.519C65.3725 128.567 64.6253 128.201 63.8346 128.999C61.2956 131.555 58.0964 132.8 54.8392 134.097C53.3884 134.675 52.3075 136.228 50.7188 137.356C52.1261 135.671 51.1105 134.543 50.3053 133.232C49.1155 131.292 47.7372 129.321 48.2885 126.809C48.4626 126.018 48.5062 125 49.6886 125.015C50.8421 125.03 50.8928 125.952 51.0524 126.802C51.3716 128.472 50.5084 130.274 51.6038 132.551C52.1406 130.574 52.2784 129.094 52.9313 127.908C53.5407 126.795 53.8889 124.781 56.0725 127.359C57.8788 129.49 58.4954 125.396 60.1639 124.964C60.2364 124.949 60.3452 124.956 60.3815 125C60.454 125.088 60.4903 125.213 60.5411 125.323C60.2002 125.616 59.7359 125.887 60.1204 126.429C60.4831 126.941 60.8966 126.729 61.2883 126.429C63.9724 126.48 65.3217 125.323 65.4088 122.444C65.4668 120.606 66.1487 118.782 66.5332 117.032C65.6409 116.475 65.1839 116.922 64.8429 117.384C61.0707 122.569 55.2019 122.649 49.7394 123.719C49.6886 123.726 49.5218 123.147 49.4129 122.84C50.1964 122.605 51.096 122.474 50.7405 121.265C52.6992 121.734 54.0702 120.496 55.5501 119.573C56.0507 119.31 57.1534 119.302 56.5658 118.416C56.1305 117.764 55.4268 118.453 54.948 118.885C53.4173 119.434 51.9084 120.005 50.8203 121.324C49.9062 121.229 49.4783 121.873 49.043 122.51C47.9404 123.118 47.5196 124.312 46.2138 126.18C46.6853 121.419 45.1111 117.691 46.3009 113.824C46.533 113.084 47.048 112.154 46.2936 111.451C46.0687 111.239 45.1982 111.305 45.0023 111.554C44.364 112.367 42.9711 112.718 43.2032 114.066C43.3193 114.74 43.8779 115.325 44.0738 115.999C45.0458 119.258 44.1753 120.328 40.8456 119.8C38.5097 119.427 36.2101 118.826 33.6855 118.277C34.6649 116.241 35.3976 114.461 36.3407 112.806C38.6983 108.683 42.282 107.635 46.4895 110.089C47.73 110.814 47.9984 110.147 48.3828 109.518C48.9632 108.566 50.5229 107.958 49.7902 106.5C49.3549 105.643 48.5134 105.878 47.5994 106.017C43.1815 106.72 39.4383 103.776 35.1074 103.761C35.8401 101.718 37.5086 100.78 38.517 99.3081L38.4444 99.3813C39.0465 99.2861 39.7937 99.4839 39.9823 98.583L39.8953 98.6416C41.1285 98.898 42.3618 99.1983 43.6023 98.7222L43.6385 98.6563C44.4002 100.429 45.9019 99.2642 47.0408 99.5205C47.0771 100.597 47.8098 100.722 48.6368 100.722C47.9766 101.776 49.9207 103.644 47.4615 104.332C47.1278 104.428 48.2523 105.35 49.2824 105.607C52.7354 106.471 54.8755 103.322 57.9803 103.146C55.8185 103.908 54.3749 105.402 53.4681 107.43C53.2868 107.84 53.1272 108.456 53.294 108.8C53.635 109.503 54.3096 109.02 54.8682 108.998C59.1193 108.844 59.7649 105.057 61.4987 102.362C64.3714 99.9673 67.6286 99.1104 71.5315 100.092C68.5064 99.2715 69.3624 102.201 68.1799 103.102C67.3094 103.768 65.2782 103.607 65.8658 105.211C66.3664 106.581 68.2815 105.929 69.4857 105.929C71.147 105.929 72.9388 106.8 74.5202 105.504C69.0722 110.162 66.9612 114.527 67.3384 121.705C69.4712 117.925 72.4673 116.146 74.5638 113.67C74.5638 113.634 74.6363 113.868 74.5492 114.022C73.4466 116.073 74.0487 116.593 76.3048 115.721C75.0643 117.984 73.6715 120.005 73.1492 122.393C72.9098 123.484 72.9388 124.62 74.3824 124.978C75.6084 125.286 76.138 124.524 76.5152 123.565C77.5743 120.892 78.6117 118.218 79.6563 115.545C78.9744 117.698 81.4119 119.588 80.1786 121.705C79.6926 122.232 79.2428 122.92 79.8014 123.492C80.3527 124.048 80.759 123.418 81.0419 122.913C82.5653 122.386 82.8917 121.404 82.6161 119.793C81.5932 113.758 84.1032 108.741 87.3169 103.988C86.693 105.885 85.438 107.621 85.0608 109.532C84.4369 112.674 86.5552 112.784 88.6662 112.037C88.3615 115.97 88.2817 119.595 90.9078 122.906C92.3877 120.489 92.199 117.86 92.9535 115.531C93.7877 112.938 95.8698 109.481 93.0188 106.405C90.5378 103.724 91.1544 101.059 93.5701 98.627L93.5048 98.5904L93.5121 98.5611ZM107.919 125.828C108.021 126.209 107.963 126.927 108.543 126.648C108.92 126.472 108.775 125.806 108.304 125.484C108.275 124.678 108.42 123.821 107.571 123.294C107.368 121.844 107.157 120.386 106.954 118.936C107.259 119.727 107.854 120.789 108.608 120.086C109.689 119.075 108.507 117.889 107.948 116.995C107.194 115.794 106.447 116.168 106.069 117.427C102.587 120.064 106.2 121.763 106.904 123.843C106.896 124.685 107.208 125.359 107.926 125.821L107.919 125.828ZM98.1694 141.53C98.5756 142.138 98.4378 143.654 99.4607 143.127C100.208 142.746 99.7508 141.443 99.0254 140.717C98.8513 139.868 99.4026 138.747 98.2129 138.286C97.9808 138.198 97.4439 138.388 97.3351 138.608C96.8708 139.48 97.7051 140.124 97.8574 140.901C97.901 141.12 98.0606 141.318 98.1694 141.53ZM98.8658 103.065C97.7776 105.929 96.305 107.884 96.5299 109.613C97.1392 114.256 97.6326 118.782 96.0946 123.309C95.8045 124.151 96.1309 124.729 96.9796 124.905C97.8066 125.074 98.6119 124.7 98.4813 123.851C98.0605 121.082 100.578 118.687 99.4824 116.527C99.1124 120.731 102.848 116.798 104.372 118.079C105.192 118.768 106.664 117.318 106.838 116.505C107.216 114.762 107.455 112.726 105.634 111.422C102.957 109.51 100.52 107.394 98.8658 103.058V103.065ZM108.637 142.094C111.343 136.763 111.242 136.125 105.808 134.785C100.411 133.452 96.9724 130.383 95.6594 124.854C93.2582 127.366 93.2074 133.057 95.4127 136.316C97.5818 139.531 100.897 139.948 106.584 137.729C107.324 139.143 106.86 141.157 108.637 142.094ZM82.4928 123.155C80.0843 125.982 78.2852 128.714 81.0564 132.127C81.6947 132.91 81.2668 134.836 82.5943 134.58C84.2193 134.272 82.6814 132.764 82.9715 131.834C83.0296 131.658 83.0586 131.467 83.1239 131.182C84.1613 132.009 83.6244 134.844 85.5613 133.855C87.121 133.057 87.2008 133.364 87.6868 134.639C88.0205 135.525 88.8258 136.316 89.9575 135.737C90.9078 135.247 90.5451 134.302 90.5015 133.474C90.4362 132.178 89.8849 130.984 88.9128 130.332C86.1707 128.487 84.2628 125.909 82.4928 123.14V123.155ZM63.334 109.078C59.6198 106.83 59.9173 111.458 58.2923 113.18C58.1327 113.348 58.5317 114.395 58.5897 114.388C60.3017 114.161 61.8397 115.699 63.1744 115.465C66.3881 114.893 68.8981 112.696 71.1832 110.367C71.6475 109.891 71.7345 109.232 71.3573 108.705C70.9148 108.089 70.2765 108.441 69.7179 108.609C67.8535 109.188 65.9674 109.481 63.334 109.078ZM106.258 112.345C107.252 114.22 107.926 115.882 108.942 117.303C110.444 119.405 110.117 122.43 112.526 124.092C112.961 124.392 112.961 125.528 113.904 125.147C114.542 124.891 114.463 124.136 114.376 123.565C114.107 121.902 113.599 120.262 113.512 118.592C113.244 113.363 112.09 112.271 106.251 112.337L106.258 112.345ZM93.2727 128.516C89.8849 132.332 91.2415 136.418 92.4312 140.49C94.5712 136.601 93.2945 132.522 93.2727 128.516ZM53.5915 112.901C54.6651 111.986 56.6818 112.022 57.2186 110.133C57.4 109.496 56.7471 108.954 56.0797 109.159C54.5708 109.627 53.1925 110.382 52.5831 111.986C52.3872 112.506 52.7499 112.865 53.5842 112.901H53.5915ZM85.9821 112.286C85.0318 112.638 84.8214 113.48 84.7271 114.307C84.5675 115.772 83.3996 118.131 85.0898 118.467C87.0703 118.863 85.9531 116.336 86.3956 115.164C86.6422 114.505 86.7873 113.78 86.8598 113.077C86.9251 112.498 86.5044 112.286 85.9821 112.293V112.286ZM94.3246 139.831C94.3609 141.157 93.8966 142.702 95.7682 143.068C96.9869 143.303 97.2408 142.343 96.9216 141.523C96.3558 140.058 97.2336 137.663 95.2676 137.253C94.0344 136.997 94.564 138.923 94.3246 139.831ZM69.921 120.284C71.1542 120.218 71.2485 119.354 71.4879 118.548C71.6983 117.83 71.4444 117.362 70.7842 117.347C69.7469 117.318 69.4857 118.218 69.3189 119.009C69.1955 119.588 69.4277 120.13 69.921 120.276V120.284ZM109.08 144.76C108.826 145.485 108.5 146.115 109.232 146.833C109.544 146.123 109.805 145.493 109.08 144.76ZM104.249 140.322C104.285 139.538 104.024 138.828 103.269 138.623C102.972 138.535 102.442 138.908 102.442 139.538C102.442 140.359 102.827 140.966 103.487 141.252C103.719 141.355 104.379 140.981 104.249 140.329V140.322ZM49.0067 116.893C49.2026 116.607 49.4492 116.358 49.558 116.051C49.7467 115.538 49.1953 115.457 49.0285 115.567C48.7673 115.743 48.615 116.124 48.4917 116.453C48.4699 116.512 48.7891 116.71 49.0067 116.893ZM103.037 120.401L103.269 119.244C102.783 119.119 102.29 118.863 101.826 118.922C101.463 118.965 100.991 119.251 101.173 119.888C101.311 120.379 101.579 120.694 102.065 120.679C102.391 120.672 102.718 120.496 103.037 120.401ZM57.9586 110.58C57.8643 110.484 57.7845 110.404 57.6974 110.316C57.6176 110.477 57.5088 110.638 57.4725 110.807C57.458 110.865 57.6176 110.968 57.6974 111.048C57.7845 110.887 57.8715 110.733 57.9586 110.58ZM56.7181 114.447C56.8124 114.542 56.8922 114.622 56.9793 114.71C57.0591 114.549 57.1679 114.388 57.2041 114.22C57.2187 114.161 57.0591 114.058 56.9793 113.978C56.8922 114.139 56.8051 114.293 56.7181 114.447ZM60.708 116.278C60.5556 116.365 60.3961 116.453 60.2437 116.541C60.3235 116.622 60.425 116.783 60.4831 116.768C60.6572 116.732 60.8096 116.622 60.9691 116.541C60.8893 116.461 60.8095 116.38 60.708 116.278ZM107.114 97.294C106.947 97.3892 106.795 97.4698 106.65 97.5504C106.729 97.6236 106.817 97.7701 106.875 97.7554C107.034 97.7188 107.179 97.6163 107.332 97.543C107.259 97.4625 107.194 97.3819 107.114 97.294ZM83.1819 136.038C83.0296 136.125 82.87 136.213 82.7176 136.301C82.7974 136.382 82.899 136.543 82.957 136.528C83.1311 136.492 83.2835 136.382 83.4431 136.301C83.3633 136.221 83.2835 136.14 83.1819 136.038ZM94.9339 102.743C94.8469 102.589 94.7598 102.428 94.6728 102.274C94.593 102.355 94.4334 102.457 94.4479 102.516C94.4842 102.684 94.593 102.846 94.6728 103.007C94.7526 102.926 94.8324 102.846 94.9339 102.743ZM97.1102 143.508C97.0159 143.413 96.9361 143.332 96.8491 143.244C96.7693 143.405 96.6605 143.566 96.6242 143.735C96.6097 143.794 96.7693 143.896 96.8491 143.977C96.9361 143.815 97.0232 143.662 97.1102 143.508Z" fill="#065DB4"/>
<path d="M38.5075 99.2939C35.6856 99.7992 36.9768 97.668 37.18 96.8111C37.8836 93.8669 40.5677 92.9587 43.2591 91.6404C40.2776 90.1903 37.2525 89.2308 35.5985 86.4111C35.2866 85.8765 33.8502 85.1807 35.2648 84.4703C38.5002 82.8517 39.1749 79.285 41.2424 76.7802C42.7658 74.9419 44.8188 74.3267 46.9951 74.2681C48.7579 74.2241 49.5124 73.8506 48.6781 72.0123C48.533 71.6901 48.5258 71.3019 48.446 70.943C47.4304 66.3583 49.3044 64.2539 54.0681 64.6298C54.8008 65.0326 55.5189 65.4135 55.2578 63.9707C54.351 61.7881 52.6607 60.0524 51.9716 57.6941C51.355 55.5848 51.7757 54.9403 53.8795 55.4969C54.1116 55.5555 54.3437 55.6434 54.5759 55.6727C56.3604 55.8631 58.3844 58.3093 59.3637 57.1887C60.713 55.6507 58.4497 53.4096 58.3626 51.3369C64.3185 51.4395 65.1817 51.6811 69.5488 54.4935C69.5488 52.3842 69.5851 50.3702 69.5343 48.3561C69.5053 47.3381 68.1705 46.1882 69.2731 45.3753C70.3178 44.6062 71.5583 45.5877 72.6682 45.9831C73.0019 46.1003 73.3138 46.3127 73.633 46.4738C73.9232 46.5691 74.3657 46.84 74.4673 46.7448C74.8663 46.3713 74.6414 45.9392 74.373 45.551C74.3222 42.9584 74.3657 39.3477 76.3461 38.5933C78.6312 37.7291 81.4097 39.7871 83.4699 41.8305C85.3052 43.6468 88.4609 43.4637 90.1004 46.84C91.4497 40.5635 97.3547 41.5961 100.402 38.5054C102.484 40.6513 104.196 39.1866 105.966 37.9708C106.045 37.9122 106.481 38.3004 106.698 38.5347C109.448 41.5668 108.526 46.115 104.747 47.9167C104.13 48.2096 103.659 48.4879 103.688 49.1471C103.811 51.5347 102.208 53.7318 102.948 56.178L103.013 56.1194C102.179 55.2845 102.382 57.3645 101.671 56.6321C101.076 56.0169 101.098 55.4383 101.359 54.4496C102.15 51.4614 102.948 48.3341 101.062 45.0237C100.96 47.2722 100.873 49.1983 100.779 51.3589C99.6978 50.2823 100.663 48.173 98.5734 48.2023C98.5154 47.6823 98.6242 46.8474 98.3703 46.7082C97.6231 46.3127 97.1661 47.0012 96.7526 47.5578C95.338 48.3195 93.7783 50.2383 92.8861 46.9865C92.8425 46.8181 91.6383 46.7668 91.1087 46.9865C90.26 47.3381 90.8838 47.902 91.174 48.3414C92.2549 49.96 93.0891 51.6738 92.9441 54.5521C94.7794 51.9302 96.0707 50.0845 97.362 48.2462C97.79 48.2462 98.1454 47.3747 98.6387 48.1364C98.9289 52.7358 101.04 57.1814 99.8284 61.9273C99.4149 59.9352 99.2191 57.9138 97.6449 55.9363C97.2169 57.9358 96.4914 59.6422 97.3982 60.9459C99.444 63.9047 99.0087 66.1239 96.0852 67.9915C94.881 66.8783 94.0104 65.6039 94.4747 63.8388C95.1856 61.151 93.9017 61.2242 92.0591 62.0225C92.0736 61.7662 92.0881 61.5025 92.1026 61.2462C91.9938 61.2608 91.8777 61.2755 91.7689 61.2901C91.8922 61.5172 92.0155 61.7442 92.1388 61.9786C92.3129 63.5825 93.8363 65.3549 91.5875 66.6732L91.6238 66.7025C90.6299 66.0067 91.5513 64.8056 90.9346 64.0293C89.9698 62.8208 89.6724 61.3414 90.2817 60.6676C93.3793 57.218 93.3503 54.1786 90.1657 50.4727C90.5526 55.4481 89.8392 58.59 88.0256 59.8986C87.8878 58.6242 87.6702 57.4231 87.6629 56.2146C87.6484 54.5668 86.2193 55.8411 85.5446 55.1161C84.9933 54.5155 85.1094 55.8265 85.0876 56.1927C84.9571 58.3605 83.3538 59.8839 82.7662 62.9087C82.7662 60.8653 82.7445 59.8912 82.7662 58.9245C82.7953 57.9431 82.9621 57.0056 81.4387 57.0129C79.9443 57.0129 79.4582 57.8186 79.6178 59.0636C79.8427 60.7481 80.1329 62.4473 80.6697 64.0439C80.9962 65.0253 81.8957 65.9481 81.3299 66.9735C79.9298 69.5149 78.3629 71.961 76.8685 74.4439C76.9773 73.8653 77.3037 72.9644 76.7379 72.8106C76.1358 72.6422 76.085 73.6236 75.8456 74.1362C75.9399 75.4765 70.9199 75.4546 74.8663 77.8495C75.0984 77.9886 75.287 78.2523 74.801 78.5745C72.1531 80.3103 73.9014 82.1779 74.6414 84.0821C76.1503 87.9491 80.0604 90.3587 80.8076 94.7164C81.0615 96.1959 82.3237 95.273 83.1797 95.1852C84.2316 95.8809 85.2763 96.6792 86.5385 95.4928C85.8784 94.1671 84.6451 94.9947 83.9052 94.4308C83.4772 93.7057 83.0854 92.944 82.6066 92.2483C81.3879 90.4905 81.4532 88.4398 82.9693 87.3486C84.5871 86.1841 84.4928 88.8866 85.5664 89.3407C85.7695 89.4286 86.0379 89.3553 86.5457 89.3553C86.125 87.0263 85.0078 84.6754 86.6183 82.4635C89.462 85.7593 89.3822 87.1508 87.039 90.1683C85.9291 91.6038 86.4659 93.9035 87.039 95.295C87.5686 96.606 88.7873 94.4528 90.1584 94.3209C89.832 94.8629 89.3242 95.3756 89.4257 95.6026C91.3264 99.7333 88.9179 100.268 85.7332 100.202C84.5363 100.18 84.5508 100.825 84.5871 101.857C84.6524 103.813 83.2958 105.395 81.5983 104.809C79.5598 104.106 77.6519 102.553 76.1503 100.927C75.3378 100.048 76.7306 98.5102 76.9047 97.1846C76.3969 97.0894 75.9036 96.8623 75.4684 96.9429C70.296 97.8877 70.3178 97.895 68.7581 92.8855C68.4534 91.9041 67.4523 91.5232 66.7414 91.9553C64.79 93.1418 63.0634 91.926 61.2426 91.7502C60.9742 91.5232 60.6985 91.2962 60.4301 91.0691C58.0724 89.6043 55.8744 85.7373 53.0597 87.9418C50.4627 89.9705 47.6625 89.121 45.2395 90.3734C45.1815 90.4026 45.2033 90.6004 45.0799 91.7283C50.0564 91.7283 54.9531 91.7283 59.8425 91.7283C60.0094 92.1604 60.3213 92.3215 60.7638 92.2336C59.8135 92.1677 58.8632 92.0871 57.9129 92.0359C57.231 91.9993 56.462 91.6843 55.9615 92.424C55.1127 93.6838 57.717 93.0686 56.8828 94.5407C54.322 94.1305 51.899 95.2877 49.3455 95.6978C49.1279 94.1818 52.5447 94.3283 51.014 92.5119C49.8751 91.157 48.4024 92.6511 47.0894 93.0246C43.9483 93.9254 41.4528 95.6246 39.9076 98.5908L39.9947 98.5322C39.4143 98.664 38.7469 98.6274 38.4567 99.3305L38.5293 99.2573L38.5075 99.2939ZM61.4675 67.1712C60.9452 66.1605 60.2633 65.1278 59.1824 66.3949C58.3191 67.3983 59.1679 68.0574 60.1472 68.4236C60.4954 70.3644 62.0696 70.8551 63.6075 71.3458C63.7599 71.3971 64.2096 70.965 64.2822 70.7013C64.7827 68.7605 62.7588 68.6726 62.0043 67.6473C61.8665 67.4568 61.6561 67.325 61.482 67.1712H61.4675ZM50.4191 76.956C48.2138 76.8241 46.7194 78.9407 44.5069 78.8748C44.1006 78.8602 43.6509 79.219 43.6871 79.8416C43.7161 80.3909 43.9483 80.8742 44.4561 80.8742C45.936 80.8742 47.5537 81.9655 49.0336 80.4348C47.735 79.9588 46.7629 79.9514 46.3277 81.4162C47.6987 82.5002 49.701 81.6506 50.9777 82.9762C50.0202 85.6128 47.1474 83.152 45.624 85.2393C48.7797 85.4663 51.2389 88.1322 54.808 86.8139C53.7416 85.2539 52.7478 83.7892 51.7467 82.3244C51.6596 80.7864 51.5653 79.2483 51.471 77.7103C51.6379 77.3002 51.783 76.8607 51.3477 76.5458C50.8399 76.1723 50.6223 76.5678 50.4264 76.9633L50.4191 76.956ZM77.6664 63.5239C75.1927 62.711 75.7295 59.5177 72.8278 57.7453C74.2714 62.2349 75.4466 65.9115 76.941 70.5622C77.8115 67.8011 79.7992 66.4388 78.3411 64.1977C80.4811 61.5538 77.8696 59.8693 77.1369 57.7966C76.2736 59.8327 77.4923 61.6197 77.6664 63.5239ZM83.9269 47.1843C82.5921 47.2282 83.1507 45.1409 81.9465 45.1702C80.5972 49.1031 79.6324 52.9555 83.2523 56.4344C83.644 53.351 84.8483 50.6338 84.7685 47.6676C84.9208 46.2981 85.1747 44.9065 83.7166 43.8079L83.9342 47.1769L83.9269 47.1843ZM55.2505 69.9689C54.9386 69.3904 54.5178 69.2366 53.9593 69.6467C54.2712 69.8957 54.5904 70.1447 54.9023 70.3937C55.664 72.4591 53.6473 72.8765 52.726 73.792C52.1166 74.3999 51.5436 74.876 52.2545 75.4033C54.808 77.3002 56.8102 80.259 61.6416 80.2883C57.5139 77.3588 57.7098 72.9571 55.2505 69.9763V69.9689ZM72.2112 90.8274C71.7106 91.6477 71.7034 92.3728 72.69 92.7829C72.9656 92.8928 73.5315 92.8781 73.6403 92.7024C74.3004 91.7063 73.3574 91.0179 73.0527 90.2049C74.0538 85.3565 70.6079 80.6545 72.5811 75.7695C73.0236 74.6709 72.4578 74.0557 71.7179 73.3306C70.9924 72.6202 71.0505 70.4963 69.3312 71.8292C68.1487 72.7447 68.1632 74.334 68.7871 75.6376C69.1789 76.4579 69.9914 77.0658 70.6152 77.7689C70.4992 77.7909 70.3831 77.8275 70.2598 77.8421C70.1437 77.8568 70.0204 77.8641 69.8971 77.8714C69.6794 77.4979 69.4618 77.0585 68.9395 77.3734C68.4099 77.6883 68.6783 78.0765 68.9395 78.4281C68.4317 79.6512 66.4005 77.454 66.6326 79.1824C66.8502 80.7717 66.8357 83.174 67.786 83.8551C69.4908 85.0782 69.839 86.4331 70.0494 88.1908C70.2017 89.4872 70.9852 90.3587 72.2039 90.8128L72.2112 90.8274ZM71.5293 56.6321C70.7168 56.6761 69.8027 59.0929 69.2296 56.5149C68.7726 57.1375 66.901 55.5775 67.4088 58.0163C67.8005 59.8986 69.6214 61.876 67.8223 64.0952C67.6699 64.2783 68.671 67.0321 70.1364 66.6659C71.3189 66.3656 71.7904 64.4321 71.1883 63.2309C70.5354 61.9346 70.3105 60.8141 70.4048 59.0417C71.5147 60.4405 70.4556 62.5718 73.205 62.711C72.2184 60.5797 71.7106 58.6535 71.5293 56.6394V56.6321ZM56.89 85.5176C58.3118 88.6303 60.3793 90.7542 63.8469 91.6038C62.3598 85.2539 62.3307 85.232 56.89 85.5176ZM70.1945 70.7453C70.695 69.3904 70.9272 67.9622 70.1582 67.3763C68.0254 65.7504 66.5818 63.5312 64.7392 61.6783C64.5941 61.5391 64.05 61.6343 63.8034 61.8028C63.2738 62.1617 63.5858 62.689 63.7599 63.0918C65.0802 66.1825 66.4875 69.2146 70.1945 70.7453ZM67.2637 84.397C64.6594 83.13 63.3174 81.2331 61.0395 80.6326C60.8219 85.0342 63.2593 85.3492 67.2637 84.397ZM81.0107 95.4781C79.1753 93.9767 77.1804 93.259 74.9533 93.0832C74.3585 93.0393 73.7201 92.9367 73.575 93.7204C73.5242 93.9987 73.6911 94.5114 73.9087 94.6212C76.0777 95.7198 78.0509 98.3711 81.0179 95.4781H81.0107ZM68.613 77.2562C68.3809 74.6269 66.4512 74.1655 64.9061 73.3819C64.3765 73.1109 64.0573 73.7041 64.1153 74.2315C64.3475 76.2382 66.016 76.8827 67.4813 77.6444C68.098 77.9667 68.6348 77.7396 68.613 77.2562ZM84.2896 100.268C82.2294 96.7964 81.932 96.7671 79.3059 99.704C80.9091 100.451 82.4833 101.191 84.2896 100.268ZM105.85 45.5803C105.893 44.3865 105.073 43.8153 104.137 43.6248C103.028 43.4051 103.057 44.3572 103.376 44.9505C103.884 45.9026 103.028 47.6896 104.624 47.8068C105.625 47.88 105.719 46.5031 105.85 45.573V45.5803ZM67.8803 89.8021C68.526 90.7029 67.6337 92.7902 69.8172 92.3215C70.296 92.219 71.3261 92.2117 71.1375 91.4793C70.753 90.0511 69.3892 89.7948 67.8803 89.7948V89.8021ZM63.5858 66.5853C63.2085 64.7104 63.0707 63.5532 61.8882 62.9673C61.7577 62.9014 61.1048 63.4433 61.0395 63.7729C60.7638 65.245 61.8375 65.7064 63.5858 66.5853ZM62.4686 58.4191C62.367 59.4958 62.0115 60.5724 63.4624 60.9679C63.5205 60.9825 63.622 60.8067 63.8977 60.5138C63.5567 59.8473 63.4915 58.9318 62.4614 58.4265L62.4686 58.4191ZM76.941 48.8395C77.3835 48.2462 77.9784 48.2023 77.5939 47.7409C77.311 47.3967 76.941 47.1037 76.5565 46.8913C76.455 46.84 75.9472 47.2941 75.9617 47.3234C76.2446 47.8288 76.5783 48.2975 76.941 48.8395ZM73.8579 72.752C73.5895 72.503 73.3646 72.2979 73.1397 72.0856C72.9439 72.3272 72.6247 72.5543 72.5811 72.8179C72.5086 73.2501 72.7045 73.7334 73.2486 73.6163C73.4734 73.565 73.6185 73.1109 73.8579 72.752ZM102.317 42.6801C102.636 42.8925 102.897 43.1195 103.202 43.2586C103.753 43.5077 103.673 42.8998 103.891 42.6874C103.608 42.4823 103.354 42.2333 103.042 42.0795C102.455 41.7792 102.621 42.453 102.317 42.6801ZM74.4673 70.7013C74.5616 70.6061 74.6414 70.5256 74.7284 70.4377C74.5688 70.3571 74.4092 70.2473 74.2424 70.2106C74.1844 70.196 74.0828 70.3571 74.003 70.4377C74.1626 70.5256 74.3149 70.6134 74.4673 70.7013ZM61.482 61.7588C61.4095 61.6197 61.3297 61.4659 61.2499 61.3194C61.1773 61.3926 61.0395 61.4879 61.054 61.5465C61.0903 61.7076 61.1846 61.8467 61.2644 62.0005C61.3369 61.9273 61.4022 61.8467 61.4893 61.7588H61.482ZM60.2415 60.88C60.1545 60.7994 60.0602 60.6603 60.0021 60.6749C59.8425 60.7042 59.6974 60.7921 59.5451 60.858C59.6176 60.9312 59.6974 61.0777 59.7555 61.0704C59.9151 61.0484 60.0602 60.9532 60.2415 60.88ZM60.1254 57.8991C60.0311 57.8039 59.9513 57.7234 59.8643 57.6355C59.7845 57.7966 59.6757 57.9577 59.6394 58.1262C59.6249 58.1848 59.7845 58.2873 59.8643 58.3679C59.9513 58.2067 60.0384 58.0529 60.1254 57.8991ZM53.3571 92.739C53.2773 92.8049 53.125 92.8928 53.1395 92.944C53.1685 93.0978 53.2628 93.2443 53.3354 93.3908C53.4152 93.3249 53.5675 93.237 53.553 93.1857C53.524 93.0319 53.4297 92.8855 53.3571 92.739ZM58.4207 64.9594C58.3409 65.04 58.1813 65.1425 58.1958 65.2011C58.2321 65.3769 58.3409 65.5307 58.4207 65.6918C58.5005 65.6112 58.6601 65.516 58.6456 65.4501C58.6093 65.2743 58.5005 65.1205 58.4207 64.9594Z" fill="#065DB4"/>
<path d="M120.385 81.0051C119.899 81.2541 119.421 81.4958 118.935 81.7448L119 81.8107C119.617 80.1702 120.233 78.5296 120.85 76.9037C119.783 76.0761 119.602 77.226 119.094 77.5189C117.948 78.1781 116.678 78.1707 115.431 78.2879C115.322 76.911 115.561 75.7026 116.773 74.8237C117.861 74.0327 117.643 73.4175 117.244 72.004C116.686 70.0339 112.478 69.199 115.249 66.1522C115.496 65.8812 114.865 65.1049 114.183 64.9731C113.342 64.8046 112.652 65.1195 112.565 65.9325C112.34 68.0638 112.29 70.0632 109.707 67.2874C108.858 66.3719 107.756 67.4046 107.197 67.9393C106.551 68.5618 107.422 69.4333 108.017 69.5725C110.338 70.1291 109.997 73.4468 112.449 73.7691V73.7471C111.956 73.9961 111.746 74.4136 111.927 74.9263C113.218 78.5955 111.6 81.1955 108.858 83.4C107.879 83.2316 109.192 81.613 107.705 81.6569C106.813 81.9719 107.277 82.8288 107.27 83.444C107.255 85.9927 106.435 87.3623 103.679 86.1245L103.751 86.2124C103.555 83.7516 104.063 80.7781 100.102 81.0124L100.146 81.0637C100.001 80.7121 99.8557 80.3679 99.7106 80.0164C99.9282 79.7893 100.153 79.5623 100.371 79.3353C101.865 80.0383 101.473 78.9178 101.582 78.1341C101.756 76.8671 101.35 76.0908 100.153 75.5561C98.7458 74.9263 96.7581 75.2412 96.0254 73.2857C99.2608 72.2897 102.852 72.8097 103.715 75.6074C104.615 78.5223 107.371 79.1155 108.118 82.6017C109.591 78.9398 109.787 76.9623 107.596 74.3843C105.674 72.1212 104.15 68.5911 104.274 65.6981C104.455 61.67 106.385 57.759 109.584 54.8221C110.244 54.2142 111.6 53.87 110.955 52.4419C111.383 53.2475 111.869 52.8813 112.297 52.4712C112.413 52.3613 112.391 51.8706 112.333 51.856C111.695 51.6436 111.23 51.8706 110.998 52.5297C109.156 52.0244 111.76 50.4498 110.208 49.6515C108.786 51.9731 107.393 54.2289 106.007 56.4847C105.594 57.1585 105.202 57.8396 104.803 58.5134C104.07 57.8396 103.164 57.2976 103.019 56.1697L102.953 56.2283C103.831 56.4187 103.875 55.6204 104.078 55.159C106.755 49.007 110.919 44.7884 117.781 43.5287C119.791 43.1625 121.597 41.683 124.513 40.1963C121.314 45.5574 126.501 49.5782 124.738 54.2142C124.245 54.4047 123.868 54.683 123.875 55.2835C123.157 55.0492 122.453 54.9393 122.141 55.8475C122.047 56.1258 122.127 56.719 122.286 56.7849C123.222 57.1658 123.759 56.3455 124.419 55.9207C124.898 55.6644 125.369 55.4007 125.848 55.1444C128.648 54.3095 131.76 54.5804 134.626 52.2954C134.822 58.1545 136.251 63.5449 134.996 69.0525C134.822 69.7629 133.958 70.693 135.141 71.0812C135.997 71.3595 136.222 70.5246 136.055 69.7336C138.021 69.2942 139.987 68.8474 142.228 68.3421C140.603 67.5071 139.167 67.9905 137.796 67.8001C137.201 67.7195 136.497 67.7269 136.461 66.9359C136.425 66.1888 137.07 66.035 137.673 65.8446C140.944 64.8193 143.701 67.1409 146.806 67.2947C147.495 67.3314 147.154 68.5471 147.103 69.2356C146.951 71.4401 146.639 73.5933 145.174 75.395C144.767 75.9003 143.788 76.8012 144.542 77.1527C147.56 78.5882 147.328 83.3854 152.515 83.3634C148.46 86.5493 147.64 91.0975 143.817 93.1994C142.888 93.7048 141.764 93.8439 140.835 94.3566C139.813 94.9132 139.138 94.7301 139.065 93.6169C138.942 91.8005 140.596 93.9098 140.915 92.8625C140.864 91.5882 138.899 91.3758 139.283 89.8597C141.213 89.911 142.337 88.2118 143.984 87.6699C145.319 87.2304 144.397 86.6006 144.332 85.8535C144.187 84.2423 143.715 85.0406 142.91 85.2823C140.618 85.978 140.69 88.5121 139.218 89.7938C136.875 89.8744 135.09 91.6834 132.812 91.9031C132.058 91.9763 130.781 92.9211 131.303 90.5042C131.891 87.7797 129.156 89.5155 127.814 88.8783C128.815 88.373 130.425 88.7904 130.665 87.0107C129.105 86.4028 127.814 87.6332 126.378 87.7797H126.443C127.096 86.8203 128.38 86.9155 129.12 86.227C129.918 85.4873 131.905 85.524 131.376 83.9273C130.795 82.1769 129.345 83.8688 128.061 83.5758C129.069 83.0485 129.903 82.609 130.839 82.1257C129.852 80.2434 128.3 80.7414 126.66 80.9465C127.85 80.2434 129.729 80.4338 129.707 78.8738C129.693 77.4823 128.307 78.493 127.255 78.3905C129.025 76.1567 132.645 74.8896 130.44 71.2057C130.621 70.964 130.81 70.715 130.991 70.4733C131.18 70.1877 131.369 69.9021 131.557 69.6238C132.087 69.2209 132.181 68.6497 132.174 68.0345C132.761 67.5218 133.03 66.4964 132.551 66.2767C131.739 65.9105 132.05 67.1629 131.601 67.5145C131.296 67.9978 130.999 68.4739 130.694 68.9573C130.585 69.2722 130.476 69.5871 130.367 69.9021C129.852 69.9021 129.7 70.2243 129.693 70.6784C129.199 69.946 128.837 69.177 129.004 68.2542C129.243 67.8294 129.33 67.3753 128.815 67.1629C128.641 67.0897 128.307 67.4046 128.046 67.5438C127.342 67.1702 126.798 67.6609 126.196 67.866L126.24 67.9319C125.652 67.0384 127.582 65.83 125.971 65.1342C124.956 64.7021 124.15 65.4491 123.44 66.1229C121.691 67.7708 119.957 69.4333 118.224 71.0959C117.658 71.6378 117.339 72.2823 117.883 72.9854C118.369 73.6153 118.971 73.1319 119.508 72.9854C121.677 72.4068 122.83 70.2829 124.789 69.3821L124.716 69.3381C124.6 69.9899 123.918 71.0739 124.767 71.213C129.569 72.0113 126.552 75.2339 126.254 76.9989C125.812 79.5989 124.426 82.2355 120.806 81.4445C121.082 81.1589 121.64 80.8513 121.133 80.4485C120.567 80.0017 120.531 80.6828 120.378 81.0198L120.385 81.0051ZM125.921 57.3196C124.999 57.4734 124.223 57.9055 123.592 58.6013C122.337 59.612 120.414 59.9782 119.899 62.5196C121.902 61.5382 123.113 60.4908 124.129 59.1799C124.948 58.8356 125.812 58.5646 126.32 57.737C126.9 57.6858 127.502 57.6858 127.749 56.99C128.917 57.0047 129.845 56.4407 130.868 55.7156C129.468 55.4227 128.416 55.8475 127.437 56.5579L125.921 57.3269V57.3196ZM118.006 65.4784C119.022 64.9657 118.964 68.2761 120.4 66.1669C120.784 65.5956 121.459 64.5849 121.3 64.3945C120.69 63.6841 119.82 62.8418 118.985 62.7759C117.97 62.6953 117.694 63.9404 117.397 64.8339C116.773 65.2294 116.192 65.8812 116.889 66.4159C117.44 66.8407 117.672 65.8812 118.006 65.4784ZM115.133 65.2733C117.636 62.8858 119.319 59.9782 121.807 57.7956C122.17 57.4734 122.308 56.9607 121.909 56.5286C121.329 55.9061 120.596 55.8695 119.957 56.3455C118.804 57.2171 119.022 57.2683 119.065 55.7376C119.159 52.7788 118.536 49.7906 118.202 46.8171C117.912 46.8025 117.614 46.7878 117.324 46.7805C117.934 53.0937 116.947 59.1652 115.133 65.2807V65.2733ZM138.587 76.0029C137.462 74.9189 137.223 73.6226 136.548 72.6266C136.069 71.9235 135.061 70.5319 134.009 71.8136C133.008 73.044 131.252 74.4063 131.818 76.0102C132.254 77.2333 134.169 76.3984 135.416 76.3544C136.476 76.3178 137.527 76.1201 138.587 75.9956V76.0029ZM110.157 63.3691C111.303 62.0948 111.172 60.6666 110.556 58.9968C109.598 60.5055 110.251 61.9263 110.157 63.3691ZM118.347 66.4598C117.861 66.7601 117.223 67.4705 117.077 68.4519C117.027 68.8035 117.52 69.3015 118.1 69.1916C119.203 68.9866 119.74 68.2102 119.776 67.1702C119.791 66.7674 119.413 66.284 118.34 66.4598H118.347ZM108.467 61.9922C107.342 62.8198 106.842 63.7427 107.342 65.31C108.322 64.226 109.112 63.3911 108.467 61.9922ZM139.225 75.6001C140.219 76.2299 141.263 76.9989 142.323 75.9663C142.54 75.7539 142.504 74.8384 142.294 74.7065C141.118 73.9375 140.284 75.0141 139.232 75.6001H139.225ZM145.681 83.4879C145.587 83.3927 145.507 83.3121 145.42 83.2242C145.34 83.3854 145.232 83.5465 145.195 83.7149C145.181 83.7735 145.34 83.8761 145.42 83.9566C145.507 83.7955 145.594 83.6417 145.681 83.4879ZM113.624 64.0942C113.719 63.999 113.799 63.9184 113.886 63.8305C113.726 63.75 113.566 63.6401 113.4 63.6035C113.342 63.5889 113.24 63.75 113.16 63.8305C113.32 63.9184 113.472 64.0063 113.624 64.0942ZM146.769 82.5944C146.675 82.6896 146.595 82.7702 146.508 82.8581C146.668 82.9386 146.828 83.0485 146.994 83.0851C147.052 83.0997 147.154 82.9386 147.234 82.8581C147.074 82.7702 146.922 82.6823 146.769 82.5944ZM109.635 65.9179C109.722 66.0717 109.809 66.2328 109.896 66.3866C109.975 66.306 110.135 66.2035 110.121 66.1449C110.084 65.9691 109.975 65.8153 109.896 65.6542C109.816 65.7348 109.736 65.8153 109.635 65.9179Z" fill="#065DB4"/>
<path d="M126.175 111.87C131.079 114.008 135.889 121.676 135.439 127.33C135.193 130.48 135.316 133.497 136.564 137.276C131.573 134.984 126.487 135.958 122.28 133.27C118.812 131.051 118.384 129.432 120.154 124.284C120.445 123.441 120.401 122.687 120.561 121.903L120.495 121.969C121.025 122.973 121.983 123.463 122.846 124.101C123.702 124.738 124.304 125.141 125.189 124.027C125.936 123.083 126.531 122.328 125.508 121.295C123.586 119.34 121.649 117.406 119.712 115.466L119.654 115.532C120.807 115.722 122.077 117.187 123.049 115.261C124.108 113.166 121.685 112.895 120.931 111.306C122.548 112.456 123.869 113.4 125.196 114.345C126.125 115.004 127.256 116.418 128.127 114.777C128.91 113.298 128.069 112.009 126.205 111.833L126.19 111.877L126.175 111.87ZM128.41 132.984C128.49 133.57 128.903 133.688 129.375 133.629C129.483 133.614 129.556 133.343 129.643 133.197C129.222 133.138 128.802 133.08 128.381 133.021C128.265 132.047 127.583 132.193 126.937 132.281C126.785 131.38 126.292 131.161 125.494 131.542C125.421 131.285 125.349 131.029 125.276 130.765C125.109 130.853 124.95 130.941 124.783 131.029C125.022 131.197 125.254 131.366 125.494 131.534C125.733 132.281 126.27 132.413 126.952 132.259C127.126 133.131 127.757 133.08 128.403 132.992L128.41 132.984ZM132.813 134.398C132.588 134.845 132.864 135.013 133.219 135.05C133.357 135.064 133.517 134.896 133.669 134.808C133.365 134.691 133.053 134.566 132.748 134.449C132.204 133.644 131.566 133.563 130.296 134.391C131.493 134.391 132.153 134.391 132.813 134.391V134.398ZM129.418 121.955C128.707 121.625 128.301 121.369 127.851 121.266C127.742 121.244 127.068 121.427 127.387 121.962C127.561 122.262 127.75 122.592 128.025 122.76C128.141 122.826 128.49 122.504 129.418 121.947V121.955ZM128.86 117.516C128.961 117.421 129.041 117.341 129.128 117.267C128.968 117.187 128.823 117.077 128.657 117.04C128.598 117.026 128.504 117.187 128.424 117.267C128.577 117.355 128.729 117.443 128.86 117.516Z" fill="#065DB4"/>
<path d="M126.185 111.824C126.454 110.337 125.126 109.949 124.314 109.539C121.593 108.177 118.75 107.056 115.957 105.848C115.957 105.848 116.007 105.884 116 105.884C118.01 105.196 118.503 103.204 119.533 101.68L119.482 101.739C122.689 101.058 125.482 103.328 128.645 103.043C129.95 102.925 131.271 103.021 132.605 102.867C129.856 101.922 126.991 101.38 124.198 100.824C122.007 100.384 122.224 98.2089 120.672 97.5717C118.118 96.5244 115.594 95.3892 112.729 95.5137C114.266 94.9204 115.674 95.4185 117.19 95.7114C118.742 96.0044 121.586 97.623 121.056 93.5216C120.882 92.174 122.224 92.6793 122.848 92.7745C128.492 93.6314 133.984 94.8545 138.032 99.4539C139.134 100.706 140.505 101.695 141.978 102.303C141.521 104.998 137.698 104.5 137.771 107.415L137.792 107.393C135.572 106.69 134.586 109.297 132.605 109.349C130.843 109.392 129.087 109.7 127.324 109.795C125.765 109.883 124.952 110.271 126.149 111.883L126.164 111.839L126.185 111.824Z" fill="#065DB4"/>
<path d="M103.688 86.1261C103.884 87.2906 104.703 88.2573 104.537 89.5683C104 93.7356 102.259 94.717 97.4564 93.2156C98.2543 96.6285 97.2097 98.6719 93.5173 98.5694L93.5825 98.606C92.9732 96.4088 92.9877 93.5964 91.6094 92.161C89.7595 90.2421 89.9409 88.5356 90.0061 86.4849C91.4062 86.3092 91.6384 87.8691 92.683 87.957C93.3576 85.4816 90.8114 85.7306 90.115 84.4782C90.4197 84.2218 90.7171 83.9655 91.0218 83.7018C93.0675 81.0579 94.3297 82.8962 95.6283 84.5221C95.7733 84.7052 95.9185 84.8883 96.0635 85.0714C96.9486 87.0562 98.0149 89.019 96.7599 91.2455C96.2666 92.1243 96.2957 92.886 97.3621 93.2449C98.5953 93.6624 98.7839 92.4686 98.9943 91.8314C99.6834 89.7587 99.7995 87.5982 99.3643 85.4303C99.6254 85.1154 99.8938 84.8004 100.155 84.4928C100.01 84.4049 99.8648 84.3171 99.7197 84.2365C99.6254 84.654 99.5311 85.0787 99.4368 85.4962C97.6667 87.9204 97.6232 84.654 96.6004 84.6173C96.2667 83.8556 96.1361 82.8303 95.563 82.3909C93.1473 80.5379 94.7142 79.8568 96.3537 79.1537C95.8531 77.85 93.6551 77.8867 93.9452 75.8433C96.7237 75.9385 99.9446 74.9571 100.38 79.3441C100.162 79.5712 99.9373 79.7982 99.7197 80.0252C99.1829 79.7836 98.6533 79.5492 98.1165 79.3075C98.073 79.6005 97.8989 80.0472 98.015 80.1571C98.6098 80.6917 98.9943 81.8635 100.155 81.0726L100.111 81.0213C100.278 83.5041 101.519 85.2252 103.76 86.2213L103.688 86.1334V86.1261ZM95.5267 89.1142C94.5619 90.5131 92.8353 90.6303 93.8219 92.366C94.2137 93.0472 95.0189 93.5379 95.6138 93.1497C97.3911 91.9998 95.4541 90.9598 95.5267 89.1142Z" fill="#065DB4"/>
<path d="M137.797 107.401C140.532 107.987 142.89 105.709 145.74 106.669C145.356 105.116 143.571 105.636 143.39 104.047C144.268 103.636 145.276 103.168 146.379 102.655C144.34 100.56 140.967 99.8866 140.351 96.5981C146.118 96.9424 147.888 100.216 149.295 106.002C150.434 110.682 149.07 111.561 145.61 113.304C142.919 114.666 140.684 116.592 137.398 116.329C135.838 116.204 135.258 115.391 135.04 114.124C134.808 112.718 135.715 112.33 136.926 112.052C139.748 111.414 142.534 110.623 146.299 109.649C142.94 108.053 139.886 109.496 137.819 107.379L137.797 107.401ZM148.606 109.869C148.316 109.686 148.069 109.43 147.779 109.356C147.242 109.232 146.132 108.668 146.778 110.03C147.046 110.594 147.997 110.638 148.613 109.869H148.606Z" fill="#065DB4"/>
<path d="M117.438 83.1382C118.403 86.5877 121.617 83.0356 122.973 85.892C122.4 87.0711 121.508 89.0852 120.463 91.0187C119.81 92.2272 118.809 93.2086 117.279 92.7398C116.72 92.5714 115.494 92.1539 115.821 91.6559C116.655 90.3889 115.567 88.4846 117.308 87.6058C118.352 87.0784 119.332 86.4046 120.42 85.7382C118.41 85.328 116.756 87.5618 114.769 86.3168C114.653 86.1923 114.537 86.0604 114.428 85.9286C115.451 85.0204 116.473 84.1196 117.496 83.2114L117.438 83.1382Z" fill="#065DB4"/>
<path d="M117.877 109.525C118.363 109.84 118.856 110.155 119.458 110.543C118.515 110.8 118.16 110.075 117.877 109.525Z" fill="#065DB4"/>
<path d="M119.701 115.473C119.252 115.019 118.809 114.572 118.359 114.118C118.403 114.082 118.446 114.045 118.483 114.016C118.867 114.521 119.259 115.026 119.643 115.532L119.701 115.466V115.473Z" fill="#065DB4"/>
<path d="M114.773 86.3237C114.229 87.0708 113.706 87.8471 112.379 87.5322C112.821 86.5581 113.59 86.2065 114.432 85.9355C114.541 86.0674 114.657 86.1992 114.773 86.3237Z" fill="#065DB4"/>
<path d="M120.546 121.902C120.335 121.851 120.045 121.858 119.944 121.726C119.77 121.506 119.719 121.184 119.617 120.906C119.762 121.089 119.9 121.272 120.052 121.455C120.19 121.631 120.335 121.799 120.48 121.968L120.553 121.894L120.546 121.902Z" fill="#065DB4"/>
<path d="M126.712 84.3827C126.385 84.5658 126.102 84.7855 125.783 84.8954C125.486 84.9906 125.413 84.8441 125.645 84.6391C125.812 84.4926 125.979 84.3095 126.182 84.2436C126.32 84.1996 126.516 84.3241 126.712 84.3827Z" fill="#065DB4"/>
<path d="M117.494 83.2104C117.813 82.5439 118.088 81.8262 119.003 81.8042L118.937 81.7383C118.908 82.7197 118.676 83.474 117.436 83.1371L117.494 83.2104Z" fill="#065DB4"/>
<path d="M126.375 87.7582C126.143 87.7582 125.911 87.7289 125.679 87.7508C125.614 87.7508 125.556 87.8754 125.49 87.9413C125.802 87.8827 126.121 87.8241 126.441 87.7655H126.375V87.7582Z" fill="#065DB4"/>
<path d="M112.45 73.7703C112.573 73.6531 112.697 73.5359 112.813 73.4187C112.276 73.0599 112.465 73.5213 112.443 73.7483V73.7703H112.45Z" fill="#065DB4"/>
<path d="M137.367 94.5049C137.439 94.5049 137.512 94.5049 137.592 94.5049C137.555 94.6367 137.519 94.7759 137.476 94.9077C137.403 94.8418 137.309 94.7832 137.265 94.6953C137.243 94.6587 137.33 94.5635 137.367 94.4976V94.5049Z" fill="#065DB4"/>
<path d="M125.465 68.5918C125.218 68.8335 124.979 69.0825 124.732 69.3242L124.805 69.3681C124.907 68.98 125.008 68.5918 125.538 68.6357L125.465 68.5845V68.5918Z" fill="#065DB4"/>
<path d="M126.204 67.8438C125.958 68.0928 125.704 68.3418 125.457 68.5908L125.53 68.6421C125.53 68.166 125.573 67.7192 126.255 67.917L126.211 67.8511L126.204 67.8438Z" fill="#065DB4"/>
<path d="M119.533 101.675C119.511 101.499 119.489 101.331 119.459 101.155C119.496 101.228 119.571 101.301 119.571 101.367C119.571 101.484 119.519 101.602 119.489 101.726L119.533 101.675Z" fill="#065DB4"/>
<path d="M49.8598 99.462C49.0038 99.3668 48.1478 99.2716 47.2918 99.1691C46.6752 98.2023 44.7818 98.1657 45.1228 96.6423C45.3984 95.4192 46.4576 96.2615 47.1902 96.386C48.2204 97.4406 49.3085 97.0744 50.52 96.6716C56.2219 94.7674 61.7352 96.0491 67.1615 98.0558C64.9271 97.5944 62.6928 97.1257 60.4585 96.6716C59.5009 96.4812 58.4272 96.2322 58.1443 97.6017C57.9122 98.693 57.593 99.2789 56.7079 99.8429C57.8324 100.121 58.9641 100.407 60.0885 100.685C56.4395 102.282 53.2404 100.128 49.8598 99.462Z" fill="#065DB4"/>
<path d="M83.5105 80.4722C81.2254 83.1967 82.1685 86.8 80.2751 89.4659C77.3806 84.5223 78.505 80.9702 83.5105 80.4722Z" fill="#065DB4"/>
<path d="M84.8914 70.0724C84.9929 71.7789 80.8362 70.8488 83.3172 73.7271C83.455 73.8882 82.1275 76.2318 80.2341 75.8437C77.7894 75.3457 79.8278 74.2837 79.9802 73.5879C80.7636 69.926 82.4031 68.886 84.8914 70.0724Z" fill="#065DB4"/>
<path d="M85.4298 59.0996C87.6859 61.4213 88.4259 63.5965 88.2372 66.4894C87.4973 65.0173 86.8952 63.8382 85.9159 61.8973C85.6837 64.219 85.5314 65.7131 85.3645 67.339C83.1665 64.6731 84.4723 62.1903 85.4298 59.0923V59.0996Z" fill="#065DB4"/>
<path d="M80.7043 76.7717C79.6379 78.903 77.6429 80.1407 77.5849 82.5283C75.7931 81.5762 75.7278 80.2725 76.3662 79.0275C77.1714 77.4455 78.5062 76.552 80.7043 76.7717Z" fill="#065DB4"/>
<path d="M98.1914 68.2841C102.094 67.7934 103.24 68.6796 103.581 72.8542C102.254 70.3641 99.3884 70.5105 98.1914 68.2841Z" fill="#065DB4"/>
<path d="M86.4272 75.4826C89.3072 74.3181 91.3311 75.2556 92.782 77.6212C93.0504 78.0533 93.8049 78.3829 93.0069 79.0567C92.2307 79.7085 91.8462 79.4888 91.3892 78.6612C90.3373 76.757 88.7993 75.5192 86.4199 75.4826H86.4272Z" fill="#065DB4"/>
<path d="M90.1102 84.4782C88.05 83.138 88.3256 81.1385 88.4417 78.0698C89.5806 80.5673 90.2988 82.1346 91.0097 83.7019C90.7123 83.9582 90.4076 84.2146 90.1029 84.4782H90.1102Z" fill="#065DB4"/>
<path d="M85.9344 81.5615C85.4266 83.2607 85.2598 84.5643 83.983 85.3187C83.9105 85.3626 83.3664 84.9232 83.3374 84.6742C83.127 83.0263 83.925 82.1328 85.9344 81.5688V81.5615Z" fill="#065DB4"/>
<path d="M92.6674 70.5479C93.4581 68.8195 94.8002 69.0978 96.6718 69.6251C95.1411 70.1085 94.0095 70.4674 92.885 70.8262L92.6602 70.5553L92.6674 70.5479Z" fill="#065DB4"/>
<path d="M84.5651 73.374C85.4138 73.9453 84.8117 74.5751 84.6521 75.183C83.9412 74.9633 84.3837 74.3554 84.2677 73.938C84.2242 73.7988 84.4563 73.5718 84.5723 73.374H84.5651Z" fill="#065DB4"/>
<path d="M87.9058 81.2914C87.5358 81.5038 87.2747 81.7602 87.0063 81.7821C86.3751 81.8407 86.2446 81.3207 86.3897 80.8813C86.4622 80.6689 86.97 80.4565 87.2311 80.5005C87.4633 80.5371 87.6301 80.9472 87.9058 81.2914Z" fill="#065DB4"/>
<path d="M76.4238 74.6846C76.6704 74.7358 76.8373 74.6479 76.9316 74.4136C76.859 74.875 76.7937 75.3291 76.7212 75.7905C75.9595 75.6074 76.6632 75.0141 76.4238 74.6846Z" fill="#065DB4"/>
<path d="M85.5903 80.7125C85.1913 80.8223 84.9012 80.9981 84.7053 80.9249C84.4587 80.8297 84.1612 80.5514 84.1177 80.317C84.0814 80.0899 84.1902 79.548 84.698 79.8849C84.9737 80.068 85.1841 80.339 85.5831 80.7125H85.5903Z" fill="#065DB4"/>
<path d="M47.1328 96.4384C47.6914 95.5888 48.5111 95.5229 49.4034 95.6547C48.9827 96.9071 47.9961 96.4823 47.1328 96.4384Z" fill="#065DB4"/>
<path d="M92.8794 70.8247C92.8214 71.1323 92.7198 71.5571 92.3498 71.2568C92.0452 71.0078 92.3136 70.6929 92.6546 70.5537L92.8722 70.8247H92.8794Z" fill="#065DB4"/>
<path d="M91.5949 66.7087C91.4135 66.6794 91.2321 66.6575 91.0508 66.6282C91.3482 66.0569 91.4352 66.6867 91.6239 66.738L91.5949 66.7087Z" fill="#065DB4"/>
<path d="M43.5996 98.7007L43.6665 98.5322L43.6368 98.6348L43.5996 98.7007Z" fill="#065DB4"/>
<path d="M77.5977 63.4517C77.8661 63.7153 78.1345 63.9863 78.4101 64.25C78.1417 63.9863 77.8733 63.7153 77.5977 63.4517Z" fill="#065DB4"/>
</g>
</g>
<defs>
<clipPath id="clip0_2057_2064">
<rect width="192" height="192" rx="30" fill="white"/>
</clipPath>
<clipPath id="clip1_2057_2064">
<rect width="209" height="115" fill="white" transform="translate(-9 38)"/>
</clipPath>
</defs>
</svg>
